<svg xmlns="http://www.w3.org/2000/svg" width="446.843" height="446.843" viewBox="0 0 446.843 446.843">
  <path d="M444.09 93.103c-2.698-3.7-7.006-5.888-11.584-5.888H155.32c-7.92 0-14.336 6.417-14.336 14.337s6.417 14.337 14.337 14.337h257.54l-10.33 32.25H186.79c-7.92 0-14.338 6.416-14.338 14.336s6.417 14.337 14.337 14.337h206.54l-11.87 37.04H203.51c-7.92 0-14.338 6.415-14.338 14.34 0 7.92 6.417 14.335 14.337 14.335h168.75l-9.95 31.07H172.69L94.79 49.063c-1.374-3.958-4.404-7.113-8.3-8.646L19.588 14.134c-7.374-2.887-15.695.735-18.59 8.1-2.892 7.37.73 15.695 8.1 18.59l60.767 23.873 74.38 214.4c-3.282 1.143-6.064 3.662-7.33 7.186l-21.507 59.74c-1.318 3.662-.775 7.732 1.468 10.915 2.24 3.183 5.883 5.078 9.773 5.078h11.04c-6.846 7.616-11.046 17.646-11.046 28.675 0 23.72 19.295 43.02 43.01 43.02s43.01-19.292 43.01-43.01c0-11.03-4.2-21.06-11.044-28.674h93.78c-6.847 7.616-11.048 17.646-11.048 28.675 0 23.72 19.294 43.013 43.013 43.013 23.717 0 43.01-19.293 43.01-43.01 0-11.03-4.2-21.06-11.042-28.675h13.433c6.6 0 11.946-5.35 11.946-11.946 0-6.6-5.35-11.946-11.947-11.946h-229.12l13.32-36.995c1.72.725 3.577 1.153 5.522 1.153h210.275c6.234 0 11.75-4.026 13.65-9.96l59.74-186.385c1.4-4.363.63-9.13-2.067-12.827zM169.66 409.807c-10.544 0-19.117-8.573-19.117-19.116s8.573-19.11 19.116-19.11 19.11 8.577 19.11 19.12-8.577 19.117-19.12 19.117zm157.707 0c-10.543 0-19.117-8.573-19.117-19.116s8.574-19.11 19.117-19.11c10.542 0 19.116 8.577 19.116 19.12s-8.574 19.117-19.116 19.117z"/>
</svg>
