<svg xmlns="http://www.w3.org/2000/svg" viewBox="0 0 85.714 85.714">
  <path d="M28.378 18.728c2.93.307 6.09 1.558 8.434 3.553-.55-1.638-.604-3.255-.25-4.22.213-.574.372-1.216.245-1.89-.444-2.524-3.123-4.563-6.036-4.563-2.895 0-4.878 2.04-4.428 4.562.01.036.033.07.042.106.022.06-2.277.493-4.313 2.294-.168.15-.45.48-.777.876 1.865-.64 4.2-1.01 7.085-.718z"/>
  <path d="M84.28 47.982c-.088-.196-.18-.388-.272-.58-.146-.316-1.803-2.69-3.687-5.31 0 0-6.988-10.34-12.004-17.36-1.18-1.204-4.29-4.355-10.802-3.68-3.682.383-7.99 2.572-9.384 5.924-.188 1.25-.374 2.26-.536 2.26-.396 0-.86-1.457-1.978-2.568-.657-.654-1.66-1.06-2.668-1.06-1.005 0-1.956.405-2.61 1.062-1.116 1.116-1.8 2.566-2.192 2.566-.075 0-.205-.67-.36-1.585-1.046-3.74-5.72-6.19-9.65-6.598-6.345-.658-9.45 2.313-10.693 3.574-4.995 7.008-12.045 17.47-12.045 17.47-1.885 2.613-3.54 4.995-3.686 5.31-.09.19-.177.384-.257.59C.525 50.222 0 52.658 0 55.215c0 10.447 8.082 18.892 18.526 18.892 10.43 0 18.495-8.444 18.495-18.892V52.32c0-1.606 1.222-3.938 2.682-4.48.822-.31 1.955-.48 2.964-.48s2.43.17 3.25.48c1.463.543 2.784 2.874 2.784 4.48v2.896c0 10.447 8.075 18.892 18.5 18.892 10.43 0 18.513-8.444 18.513-18.892 0-2.557-.51-4.993-1.434-7.234zm-65.364 20.85C11.4 68.83 5.31 62.72 5.31 55.217c0-7.5 6.09-13.6 13.606-13.6 7.496 0 13.6 6.1 13.6 13.6 0 7.503-6.104 13.613-13.6 13.613zm23.85-27.262c-2.812 0-5.154-2.032-3.596-3.595.925-.92 2.193-1.49 3.604-1.49 1.4 0 2.666.57 3.583 1.49 1.56 1.558-.786 3.595-3.592 3.595zm24.617 26.397c-7.213 0-13.093-5.88-13.093-13.09 0-7.216 5.89-13.088 13.093-13.088 7.222 0 13.08 5.87 13.08 13.088 0 7.208-5.86 13.09-13.08 13.09z"/>
  <path d="M48.91 22.218c2.34-1.96 5.466-3.19 8.363-3.492 2.906-.294 5.25.084 7.12.733-.36-.445-.667-.804-.845-.958-2-1.745-4.236-2.17-4.218-2.23.014-.034.022-.07.03-.106.448-2.52-1.55-4.56-4.467-4.56-2.9 0-5.626 2.04-6.075 4.562-.123.673-.06 1.315.146 1.892.353.955.467 2.544-.053 4.158z"/>
</svg>
