<svg xmlns="http://www.w3.org/2000/svg" viewBox="0 0 506.58 506.58">
  <path d="M51.297 363.118c-6.32 10.786-4.208 58.953-8.424 92.642-4.217 33.688 23.447 51.312 27.368 35.792 2.107-42.104 16.84-43.155 16.84-43.155s-4.473 18.953 5.26 40c25.266 31.585 28.42-10.528 38.95-28.42s52.63-55.787 94.746-35.792c13.684 101.057 50.528 82.113 55.798 78.947 5.26-3.155-1.052-41.052-2.104-64.212 0-54.735 53.425-6.58 73.69 36.845 2.6 5.575 24.984 36.462 30.52 15.787 13.685-71.584-33.69-216.85-33.69-216.85s17.894 14.737 25.267-21.056c7.373-35.792-26.813-20.35-23.16-37.896 3.95-18.953 9.477-33.555 27.367-24.212 23.104 12.06 84.218 21.057 98.953-9.476 2.43-5.03 3.806-9.094 4.733-12.795 8.787-.44 15.815-7.564 15.815-16.457 0-9.18-7.44-16.62-16.61-16.62-4.418 0-8.386 1.788-11.36 4.61-3.987-3.51-8.605-7.412-13.626-12.432-21.06-21.057-74.74-13.684-82.116-36.844-7.373-23.16 24.212-20.005 41.052-14.736 16.84 5.26 41.052 18.953 35.792-11.58-5.26-30.533-94.746-75.792-106.326-44.217-11.58 31.588 6.32 78.95-38.948 74.74-18.952-3.152-13.684-18.95-41.052-77.893-27.37-58.952-110.535 46.32-111.587 55.788-1.052 9.477-4.858 83.7 53.684 28.42 39.015-36.844 75.793 8.424 68.43 11.58-7.37 3.156-33.69 57.9-21.057 90.528-43.156 3.156-13.742 43.128-24.212 44.218-47.372 4.907-147.376 103.16-156.853 87.374-41.053-38.947 0-100.004 0-100.004-143.142 35.8-10.77 106.067-23.143 127.38z"/>
</svg>
