<svg xmlns="http://www.w3.org/2000/svg" width="20" height="30" viewBox="0 0 20 30">
  <path d="M19.7 27.44l-8.62-12.87 1.77-3.33h2.29c.16 0 .33-.17.5-.34l4.23-7.41c.34-.77-.59-1.11-.93-.52L15.13 9.2c-.5.77-1.69.17-1.01-.86l3.64-6.31c.33-.59-.51-1.19-1.02-.42l-3.63 6.14c-.6 1.02-1.61.08-1.19-.51L15.47.93c.42-.77-.42-1.28-.76-.6l-4.48 7.16c-.17.34-.17.51-.08.6l1.18 2.13-1.52 2.3-1.52-2.22s2.2-2.64-.85-6.13C4.48.59 1.95-.52.76.33c-.93.68-1.27 4.01.68 7.76 1.94 3.84 4.65 3.32 5.33 3.24l1.77 3.15-8.2 12.87c-.76 1.2 0 2.05.51 2.3.5.26 1.6.6 2.36-.85l6.6-12.02 7.27 12.45c.42.68 1.35 1.02 2.03.51.34-.25 1.35-1.11.59-2.3" fill="#FFF"/>
</svg>
