<svg xmlns="http://www.w3.org/2000/svg" width="510" height="510">
  <path d="M459 0H51C23 0 0 23 0 51v408c0 28 23 51 51 51h408c28 0 51-23 51-51V51c0-28-23-51-51-51zm-58.6 186.2c-2.6 117.3-76.5 199-188.7 204-46 2.5-79-12.8-109.7-30.6 33 5 76.5-7.7 99.5-28C168.3 329 148 311 137.7 283c10.2 2.6 20.4 0 28 0-30.5-10-51-28-53.5-68.8 7.7 5 18 7.7 28 7.7-23-13-38.2-61.8-20.3-92 33 35.3 73.3 66 140 71-18-71.3 79-109.6 117-61 18-2.7 30.5-10.4 43.3-15.5-5 17.8-15.3 28-28 38.2 12.7-2.6 25.4-5 35.6-10.3-2.5 12.8-15.3 23-28 33.2z"/>
</svg>
