<svg xmlns="http://www.w3.org/2000/svg" width="22" height="315" viewBox="0 0 22 315"><path d="M21.6 0h-8.01v2h8.01V0zM9.45.11C6.44.53 3.82 2.18 2.11 4.52L3.72 5.7c1.41-1.92 3.55-3.26 6.01-3.61L9.45.11zM.29 8.49C.1 9.3 0 10.14 0 11v5.7h2V11c0-.71.08-1.39.23-2.05L.29 8.5v-.01zM0 20.7v8h2v-8H0zm0 12v8h2v-8H0zm0 12v8h2v-8H0zm0 12v8h2v-8H0zm0 12v8h2v-8H0zm0 12v8h2v-8H0zm0 12v8h2v-8H0zm0 12v8h2v-8H0zm0 12v8h2v-8H0zm0 12v8h2v-8H0zm0 12v8h2v-8H0zm0 12v8h2v-8H0zm0 12v8h2v-8H0zm0 12v8h2v-8H0zm0 12v8h2v-8H0zm0 12v8h2v-8H0zm0 12v8h2v-8H0zm0 12v8h2v-8H0zm0 12v8h2v-8H0zm0 12v8h2v-8H0zm0 12v8h2v-8H0zm0 12v8h2v-8H0zm0 12v8h2v-8H0zm0 12v8h2v-8H0zm0 12v5.7h2v-5.7H0z" fill="#a29948"/></svg>